<svg xmlns="http://www.w3.org/2000/svg" viewBox="0 0 512 512" id="mobile-payment"><rect width="298.667" height="512" x="106.667" fill="#555e77" rx="53.333" ry="53.333"></rect><path fill="#424c63" d="M149.333,458.667V53.333c0-29.409,23.927-53.333,53.333-53.333h-42.667c-29.406,0-53.333,23.924-53.333,53.333v405.333c0,29.409,23.927,53.333,53.333,53.333h42.667c-29.406,0-53.333-23.924-53.333-53.333Z"></path><circle cx="256" cy="472" r="13.333" fill="#eff3f9"></circle><rect width="256" height="352" x="128" y="74.667" fill="#eff3f9" rx="10.667" ry="10.667"></rect><path fill="#cfe0f3" d="M138.667,74.667c-5.891,0-10.667,4.775-10.667,10.667v330.667c0,5.891,4.776,10.667,10.667,10.667h10.667V74.667h-10.667Z"></path><rect width="256" height="181.333" x="202.667" y="170.667" fill="#00d18d" rx="32" ry="32"></rect><path fill="#00b277" d="M234.667,320v-117.333c0-17.646,14.354-32,32-32h-32c-17.646,0-32,14.354-32,32v117.333c0,17.646,14.354,32,32,32h32c-17.646,0-32-14.354-32-32Z"></path><rect width="256" height="21.333" x="202.667" y="213.333" fill="#6f7792"></rect><rect width="32" height="21.333" x="202.667" y="213.333" fill="#555e77"></rect><path fill="#ffc343" d="M277.333,320h-32c-5.891,0-10.667-4.776-10.667-10.667s4.776-10.667,10.667-10.667h32c5.891,0,10.667,4.776,10.667,10.667s-4.776,10.667-10.667,10.667Z"></path></svg>